<svg id="bold_1_" enable-background="new 0 0 24 24" height="512" viewBox="0 0 24 24" width="512" xmlns="http://www.w3.org/2000/svg"><path d="m13.25 0h-10.5c-1.52 0-2.75 1.23-2.75 2.75v15.5c0 1.52 1.23 2.75 2.75 2.75h7.56c-.52-1.06-.81-2.25-.81-3.5 0-.87.14-1.72.41-2.5h-7.16c-.414 0-.75-.336-.75-.75s.336-.75.75-.75h7.83c.204-.354.444-.683.699-1h-2.279v-6.75c0-.41.34-.75.75-.75h2.5c.41 0 .75.34.75.75v5.15c.89-.61 1.9-1.05 3-1.26v-6.89c0-1.52-1.23-2.75-2.75-2.75zm-6.25 12.5h-4v-2.75c0-.41.34-.75.75-.75h2.5c.41 0 .75.34.75.75z"/><path d="m17.5 11c-3.584 0-6.5 2.916-6.5 6.5s2.916 6.5 6.5 6.5 6.5-2.916 6.5-6.5-2.916-6.5-6.5-6.5zm2.75 7.25h-2v2c0 .414-.336.75-.75.75s-.75-.336-.75-.75v-2h-2c-.414 0-.75-.336-.75-.75s.336-.75.75-.75h2v-2c0-.414.336-.75.75-.75s.75.336.75.75v2h2c.414 0 .75.336.75.75s-.336.75-.75.75z"/></svg>